<!--?xml version="1.0" encoding="utf-8"?-->
<!-- Generator: Adobe Illustrator 18.1.1, SVG Export Plug-In . SVG Version: 6.00 Build 0)  -->

<svg version="1.1" id="_x32_" xmlns="http://www.w3.org/2000/svg" xmlns:xlink="http://www.w3.org/1999/xlink" x="0px" y="0px" viewBox="0 0 512 512" style="width: 256px; height: 256px; opacity: 1;" xml:space="preserve">
<style type="text/css">
	.st0{fill:#4B4B4B;}
</style>
<g>
	<path class="st0" d="M497.569,215.169l-55.341-13.064c-4.037-13.955-9.495-27.277-16.376-39.735l29.844-48.304
		c4.57-7.395,3.45-16.945-2.688-23.084l-31.992-31.991c-6.128-6.129-15.67-7.248-23.073-2.68l-48.286,29.854
		c-12.468-6.881-25.789-12.348-39.734-16.376l-13.064-55.368c-2-8.44-9.551-14.422-18.23-14.422h-45.24
		c-8.679,0-16.22,5.982-18.22,14.422L202.105,69.79c-13.955,4.028-27.276,9.478-39.735,16.376l-48.304-29.871
		c-7.386-4.551-16.945-3.441-23.084,2.697L58.992,90.974c-6.129,6.137-7.248,15.706-2.689,23.082l29.863,48.313
		c-6.881,12.458-12.349,25.78-16.367,39.716L14.422,215.15C5.982,217.169,0,224.701,0,233.389v45.231
		c0,8.679,5.982,16.239,14.422,18.229L69.8,309.914c4.028,13.945,9.486,27.257,16.367,39.707l-29.872,48.322
		c-4.551,7.394-3.441,16.954,2.697,23.101l31.982,31.973c6.138,6.147,15.706,7.256,23.082,2.688l48.322-29.872
		c12.469,6.89,25.79,12.349,39.726,16.367l13.064,55.368c2,8.468,9.541,14.431,18.22,14.431h45.24c8.679,0,16.23-5.964,18.23-14.431
		l13.064-55.368c13.936-4.018,27.258-9.477,39.708-16.367l48.313,29.863c7.403,4.57,16.945,3.45,23.092-2.688l31.982-31.992
		c6.128-6.128,7.248-15.688,2.678-23.083l-29.863-48.304c6.899-12.45,12.349-25.771,16.377-39.716l55.368-13.065
		c8.468-2,14.422-9.541,14.422-18.229V233.38C512,224.71,506.036,217.169,497.569,215.169z M255.995,397.319
		c-78.001,0-141.296-63.295-141.296-141.324c0-78.038,63.296-141.324,141.296-141.324c78.03,0,141.324,63.286,141.324,141.324
		C397.319,334.024,334.025,397.319,255.995,397.319z" style="fill: rgb(199, 199, 199);"></path>
	<path class="st0" d="M256.005,180.507c-41.671,0-75.469,33.809-75.469,75.488c0,41.68,33.798,75.488,75.469,75.488
		c41.68,0,75.487-33.808,75.487-75.488C331.492,214.316,297.684,180.507,256.005,180.507z" style="fill: rgb(199, 199, 199);"></path>
</g>
</svg>
