<!--?xml version="1.0" encoding="utf-8"?-->
<!-- Generator: Adobe Illustrator 15.1.0, SVG Export Plug-In . SVG Version: 6.00 Build 0)  -->

<svg version="1.1" id="_x32_" xmlns="http://www.w3.org/2000/svg" xmlns:xlink="http://www.w3.org/1999/xlink" x="0px" y="0px" width="512px" height="512px" viewBox="0 0 512 512" style="width: 256px; height: 256px; opacity: 1;" xml:space="preserve">
<style type="text/css">

	.st0{fill:#4B4B4B;}

</style>
<g>
	<path class="st0" d="M384,46.469c-70.688,0-128,57.313-128,128.016c0-70.703-57.313-128.016-128-128.016S0,103.781,0,174.484
		c0,66.484,31.313,193.391,218.563,276.234c11.844,5.25,35.703,14.469,35.703,14.469c0.547,0.219,1.141,0.344,1.734,0.344
		s1.188-0.125,1.734-0.344c0,0,23.859-9.219,35.703-14.469C480.688,367.875,512,240.969,512,174.484
		C512,103.781,454.688,46.469,384,46.469z" style="fill: rgb(223, 86, 86);"></path>
</g>
</svg>
