<!--?xml version="1.0" encoding="utf-8"?-->
<!-- Generator: Adobe Illustrator 18.1.1, SVG Export Plug-In . SVG Version: 6.00 Build 0)  -->

<svg version="1.1" id="_x32_" xmlns="http://www.w3.org/2000/svg" xmlns:xlink="http://www.w3.org/1999/xlink" x="0px" y="0px" viewBox="0 0 512 512" style="width: 16px; height: 16px; opacity: 1;" xml:space="preserve">
<style type="text/css">
	.st0{fill:#4B4B4B;}
</style>
<g>
	<path class="st0" d="M512,338.014c0-46.219-37.645-85.386-89.958-99.619c-15.756,59.151-66.36,108.483-137.895,131.216
		c-7.915,3.066-17.252,6.55-27.685,10.248c13.991,25.511,40.297,45.82,73.054,56.122c26.784,10.404,83.692,30.267,142.202,36.77
		l-20.666-46.21C487.715,407.765,512,375.147,512,338.014z" style="fill: rgb(0, 226, 151);"></path>
	<path class="st0" d="M276.255,347.165c74.54-23.448,127.262-80.992,127.262-148.309c0-88.155-90.329-159.607-201.756-159.607
		C90.329,39.249,0,110.701,0,198.856c0,56.206,36.762,105.583,92.27,134.012l-31.284,69.955
		C149.559,392.976,235.708,362.903,276.255,347.165z" style="fill: rgb(0, 226, 151);"></path>
</g>
</svg>
