<!--?xml version="1.0" encoding="utf-8"?-->
<!-- Generator: Adobe Illustrator 15.1.0, SVG Export Plug-In . SVG Version: 6.00 Build 0)  -->

<svg version="1.1" id="_x32_" xmlns="http://www.w3.org/2000/svg" xmlns:xlink="http://www.w3.org/1999/xlink" x="0px" y="0px" width="512px" height="512px" viewBox="0 0 512 512" style="width: 16px; height: 16px; opacity: 1;" xml:space="preserve">
<style type="text/css">

	.st0{fill:#4B4B4B;}

</style>
<g>
	<path class="st0" d="M461.708,471.672H66.38c22.688-43.047,67.234-130.969,67.234-130.969
		c72.125,2.406,108.188-38.469,79.344-69.719c96.906,1.969,144.938-51.344,117.453-83.719c28.906,9.156,71.359,7.828,108.547-12.453
		c79.328-43.281,74.531-192.344-64.922-173.109C235.833,20.766,91.38,355.109,26.239,475.125
		c-9.438,17.375-3.922,29.906,5.641,31.922c3.531,3.031,8.078,4.953,13.094,4.953h416.734c11.125,0,20.172-9.031,20.172-20.172
		C481.88,480.703,472.833,471.672,461.708,471.672z" style="fill: rgb(0, 136, 208);"></path>
	<path class="st0" d="M253.208,370.094c-11.125,0-20.172,9.031-20.172,20.172c0,11.125,9.047,20.156,20.172,20.156h208.375
		c11.125,0,20.156-9.031,20.156-20.156c0-11.141-9.031-20.172-20.156-20.172H253.208z" style="fill: rgb(0, 136, 208);"></path>
</g>
</svg>
