<!--?xml version="1.0" encoding="utf-8"?-->
<!-- Generator: Adobe Illustrator 18.0.0, SVG Export Plug-In . SVG Version: 6.00 Build 0)  -->

<svg version="1.1" id="_x32_" xmlns="http://www.w3.org/2000/svg" xmlns:xlink="http://www.w3.org/1999/xlink" x="0px" y="0px" viewBox="0 0 512 512" style="width: 16px; height: 16px; opacity: 1;" xml:space="preserve">
<style type="text/css">
	.st0{fill:#4B4B4B;}
</style>
<g>
	<path class="st0" d="M383.912,46.447c-12.535,0-25.223,1.187-37.518,3.615c-0.644,0.125-1.271,0.277-1.909,0.41
		c-3.031,0.632-6.037,1.324-9.006,2.12c-1.36,0.363-2.684,0.773-4.023,1.171c-2.268,0.675-4.521,1.374-6.738,2.151
		c-1.548,0.543-3.053,1.136-4.564,1.726c-2.03,0.796-4.04,1.612-6.012,2.498c-1.397,0.632-2.756,1.3-4.114,1.975
		c-2.065,1.023-4.099,2.081-6.086,3.213c-1.076,0.617-2.122,1.265-3.17,1.913c-2.178,1.339-4.308,2.736-6.371,4.224
		c-0.726,0.523-1.429,1.074-2.136,1.616c-2.252,1.71-4.427,3.502-6.514,5.399c-0.439,0.402-0.861,0.824-1.292,1.234
		c-2.202,2.085-4.308,4.263-6.295,6.566c-0.283,0.332-0.549,0.675-0.826,1.007c-1.997,2.385-3.888,4.872-5.639,7.499
		c-0.268,0.402-0.508,0.828-0.771,1.234c-1.638,2.549-3.183,5.176-4.571,7.952c-0.384,0.761-0.705,1.565-1.07,2.342
		c-1.138,2.452-2.241,4.926-3.178,7.554c-0.611,1.683-1.08,3.467-1.603,5.216c-0.531,1.815-1.12,3.576-1.554,5.469
		c-1.776,7.515-2.744,15.604-2.865,24.254c-0.418-30.969-11.778-53.693-29.226-69.8c-0.045-0.039-0.086-0.082-0.129-0.121
		c-2.387-2.194-4.882-4.259-7.486-6.207c-0.431-0.328-0.857-0.66-1.294-0.98c-2.282-1.651-4.638-3.201-7.062-4.677
		c-0.865-0.531-1.724-1.062-2.608-1.573c-2.129-1.214-4.308-2.354-6.527-3.443c-1.248-0.617-2.493-1.234-3.773-1.811
		c-2.057-0.925-4.154-1.78-6.272-2.604c-1.448-0.566-2.891-1.132-4.374-1.655c-2.256-0.792-4.55-1.503-6.861-2.19
		c-1.31-0.386-2.606-0.792-3.941-1.148c-2.98-0.8-6-1.495-9.045-2.128c-0.632-0.133-1.249-0.285-1.886-0.406
		c-12.301-2.428-24.99-3.615-37.527-3.615C57.456,46.447,0,103.904,0,174.531c0,53.982,21.292,188.956,218.512,276.21
		c11.708,5.176,35.458,14.37,35.697,14.46c0.578,0.23,1.198,0.351,1.792,0.351c0.594,0,1.214-0.121,1.792-0.351
		c0.238-0.09,23.989-9.284,35.696-14.46C490.709,363.487,512,228.513,512,174.531C512,103.904,454.54,46.447,383.912,46.447z
		 M299.477,188.347l-0.06,0.14l-0.088-0.207l-44.65,102.655l-30.872,70.69l-38.665-90.912l-22.658,39.23L151.46,328.88
		l-33.713-53.958l-44.746-6.254l-42.739-6.121l100.086-9.166l14.13,22.369l6.188,9.924l0.039-0.07l0.096,0.152l23.181-40.053
		l14.245-24.426l21.143,49.332l14.592,34.33l0.06-0.14l0.088,0.207l44.855-103.1l30.602-70.066l39.235,91.17l19.428,45.347
		l0.054-0.07l0.074,0.172l29.321-38.542l12.18-15.9l35.892,66.904l20.811,4.29l18.303,3.92l-52.715,13.414l-18.313-33.92
		l-7.249-13.562l-0.043,0.054l-0.082-0.156l-29.103,38.117l-14.69,19.105l-31.574-73.337L299.477,188.347z M208.912,139.631
		l-96.338,0.16v-18l96.178-0.156L208.912,139.631z M69.808,113.409c9.541,0,17.302,7.765,17.302,17.306
		c0,9.541-7.761,17.302-17.302,17.302c-9.541,0-17.302-7.761-17.302-17.302C52.506,121.174,60.267,113.409,69.808,113.409z" style="fill: rgb(255, 169, 202);"></path>
</g>
</svg>
