<!--?xml version="1.0" encoding="utf-8"?-->
<!-- Generator: Adobe Illustrator 18.0.0, SVG Export Plug-In . SVG Version: 6.00 Build 0)  -->

<svg version="1.1" id="_x32_" xmlns="http://www.w3.org/2000/svg" xmlns:xlink="http://www.w3.org/1999/xlink" x="0px" y="0px" viewBox="0 0 512 512" style="width: 16px; height: 16px; opacity: 1;" xml:space="preserve">
<style type="text/css">
	.st0{fill:#4B4B4B;}
</style>
<g>
	<path class="st0" d="M507.024,246.257C454.633,143.663,358.44,79.938,256,79.938c-102.41,0-198.604,63.725-251.022,166.318
		L0,256.001l4.978,9.744C57.396,368.339,153.59,432.062,256,432.062c102.44,0,198.633-63.723,251.024-166.316l4.976-9.744
		L507.024,246.257z M256,389.235c-84.328,0-161.27-49.588-207.693-133.234C94.73,172.354,171.672,122.767,256,122.767
		c84.358,0,161.299,49.588,207.695,133.234C417.299,339.648,340.358,389.235,256,389.235z" style="fill: rgb(255, 126, 61);"></path>
	<path class="st0" d="M256,153.686c-57.158,0-103.498,46.34-103.498,103.5c0,57.158,46.34,103.498,103.498,103.498
		s103.5-46.34,103.5-103.498C359.5,200.026,313.158,153.686,256,153.686z M256,302.745c-25.135,0-45.558-20.424-45.558-45.559
		c0-5.646,1.17-10.972,3.025-15.949l37.85,14.764l-15.99-39.216c6.231-3.178,13.188-5.158,20.674-5.158
		c25.137,0,45.56,20.424,45.56,45.56C301.56,282.321,281.137,302.745,256,302.745z" style="fill: rgb(255, 126, 61);"></path>
</g>
</svg>
