<!--?xml version="1.0" encoding="utf-8"?-->
<!-- Generator: Adobe Illustrator 18.1.1, SVG Export Plug-In . SVG Version: 6.00 Build 0)  -->

<svg version="1.1" id="_x32_" xmlns="http://www.w3.org/2000/svg" xmlns:xlink="http://www.w3.org/1999/xlink" x="0px" y="0px" viewBox="0 0 512 512" style="width: 16px; height: 16px; opacity: 1;" xml:space="preserve">
<style type="text/css">
	.st0{fill:#4B4B4B;}
</style>
<g>
	<path class="st0" d="M324.481,417.89V30.445C324.481,13.658,310.823,0,294.037,0H44.692C27.909,0,14.251,13.658,14.251,30.445
		V417.89c0,16.787,13.658,30.446,30.442,30.446h249.345C310.823,448.336,324.481,434.677,324.481,417.89z M99.781,73.02
		c-1.45,1.147-3.51,3.361-5.875,6.259c-1.755,2.131-3.662,4.732-5.648,7.473c-1.296,1.759-2.592,3.666-3.815,5.574
		c-1.524,2.214-2.898,4.426-4.116,6.408c-1.758,3.129-3.208,5.871-3.894,7.935c0,0.075-0.074,0.149-0.074,0.231
		c-0.153,0.305-0.306,0.529-0.458,0.529c-0.152,0-0.305-0.224-0.458-0.529c0-0.082-0.078-0.156-0.078-0.231
		c-0.38-1.065-0.912-2.287-1.602-3.666c-0.532-1.14-1.296-2.436-2.06-3.815c-0.991-1.676-2.135-3.509-3.431-5.416
		c-0.231-0.455-0.536-0.916-0.841-1.371c-1.066-1.602-2.214-3.278-3.279-4.806c-4.657-6.565-9.463-12.436-12.134-14.574
		c-0.153-0.149-0.301-0.38-0.301-0.454c0-0.082,0.148-0.306,0.301-0.388c1.908-1.602,4.885-5.03,8.241-9.306
		c0.611-0.842,1.222-1.677,1.908-2.593c3.894-5.342,8.014-11.445,10.681-16.325c1.147-2.139,1.986-3.971,2.518-5.499
		c0-0.075,0.078-0.15,0.078-0.224c0.153-0.306,0.306-0.462,0.458-0.462c0.153,0,0.305,0.156,0.458,0.462
		c0,0.074,0.074,0.149,0.074,0.224c1.755,5.036,7.709,14.425,13.431,22.055c0.533,0.835,1.144,1.602,1.676,2.287
		c3.282,4.27,6.334,7.779,8.241,9.381c0.152,0.082,0.305,0.305,0.305,0.388C100.087,72.64,99.934,72.871,99.781,73.02z
		 M224.91,225.163c-6.945,5.566-20.371,22.353-32.274,39.669c-1.222,1.759-2.366,3.51-3.584,5.268
		c-3.514,5.342-6.792,10.603-9.616,15.491c0,0-0.074,0.074-0.153,0.148c-3.968,6.87-7.097,13.047-8.621,17.63
		c-0.078,0.224-0.153,0.454-0.23,0.611c-0.154,0.298-0.228,0.604-0.38,0.76c-0.228,0.23-0.381,0.38-0.686,0.38
		c-0.305,0-0.459-0.15-0.689-0.38c-0.152-0.156-0.227-0.462-0.38-0.76c-0.079-0.157-0.153-0.388-0.228-0.611
		c-1.528-4.582-4.657-10.76-8.625-17.63c-0.075-0.074-0.152-0.148-0.152-0.148c-2.82-4.888-6.102-10.149-9.612-15.491
		c-1.222-1.758-2.366-3.509-3.588-5.268c-6.788-9.917-14.116-19.603-20.371-27.159c-4.731-5.648-8.926-10.148-11.903-12.51
		c-0.305-0.306-0.61-0.768-0.61-0.999c0-0.149,0.305-0.685,0.61-0.991c4.426-3.509,11.523-11.668,19.153-21.592
		c1.371-1.751,2.82-3.658,4.195-5.566c2.519-3.435,5.111-6.945,7.555-10.528c10.223-14.648,19.533-29.908,22.964-39.446
		c0.152-0.38,0.231-0.686,0.384-1.074c0.075-0.224,0.149-0.38,0.228-0.529c0.305-0.767,0.61-1.147,1.069-1.147
		c0.458,0,0.76,0.38,1.066,1.147c0.078,0.149,0.152,0.305,0.23,0.529c0.152,0.388,0.227,0.694,0.38,1.074
		c4.351,11.825,17.626,32.65,30.519,49.974c1.375,1.908,2.824,3.815,4.199,5.566c7.63,9.924,14.723,18.084,19.149,21.592
		c0.305,0.306,0.611,0.842,0.611,0.991C225.521,224.395,225.215,224.857,224.91,225.163z M286.712,385.002
		c-3.13,2.519-9.232,10.23-14.574,18.084c-0.305,0.536-0.685,1.148-1.065,1.684c-0.384,0.603-0.764,1.14-1.148,1.751
		c-1.066,1.676-2.06,3.279-2.898,4.806c-1.676,2.899-2.976,5.416-3.662,7.324c-0.152,0.462-0.305,0.768-0.532,0.768
		c-0.231,0-0.384-0.305-0.536-0.768c-0.075-0.305-0.228-0.61-0.38-0.99c-0.764-1.833-1.986-4.195-3.435-6.714
		c-1.218-1.982-2.518-4.121-3.967-6.333c-0.075-0.075-0.153-0.231-0.228-0.305c-3.13-4.732-6.639-9.538-9.768-13.278
		c0-0.074,0-0.074,0-0.074c-2.209-2.75-4.195-4.881-5.57-5.954c-0.153-0.149-0.302-0.38-0.302-0.455c0-0.074,0.149-0.305,0.302-0.38
		c1.833-1.452,4.657-4.731,7.783-8.777c0.689-0.834,1.374-1.751,2.06-2.667c5.648-7.63,11.597-16.944,13.43-22.055
		c0-0.074,0.075-0.148,0.075-0.223c0.152-0.462,0.305-0.685,0.536-0.685c0.227,0,0.38,0.223,0.532,0.685
		c0,0.075,0.079,0.149,0.079,0.223c1.144,3.129,3.89,7.935,7.171,12.972c0,0.156,0.152,0.305,0.306,0.462
		c1.754,2.825,3.815,5.641,5.722,8.316c0.76,1.065,1.524,2.056,2.287,2.972c3.129,4.046,5.95,7.325,7.782,8.777
		c0.153,0.075,0.305,0.306,0.305,0.38C287.017,384.622,286.865,384.853,286.712,385.002z" style="fill: rgb(255, 161, 0);"></path>
	<path class="st0" d="M477.686,88.817L339.741,38.612V417.89c0,25.177-20.528,45.705-45.704,45.705h-97.661l127.953,46.539
		c15.792,5.796,33.339-2.362,39.062-18.233l132.531-364.019C501.644,112.086,493.482,94.613,477.686,88.817z M449.837,161.985
		c-2.898,8.01-11.751,12.13-19.76,9.232c-2.518-0.917-4.653-2.37-6.259-4.277v-0.075c-1.371-1.445-2.288-3.129-2.972-4.955
		c-0.69,2.437-1.375,4.955-1.834,7.325c-0.532,2.592-0.916,5.037-1.065,7.473c-0.152,1.379-0.231,2.749-0.231,4.12l-12.13-4.426
		c1.524-1.833,2.899-3.815,4.273-6.028c1.982-3.204,3.815-6.714,5.492-10.454c-2.593,1.527-5.644,2.295-8.774,2.064
		c-1.45-0.075-2.824-0.38-4.274-0.916c-8.01-2.898-12.13-11.75-9.232-19.76c0.764-2.213,2.061-4.045,3.662-5.573
		c4.046-4.195,10.301-5.797,16.098-3.658c0.611,0.231,1.147,0.454,1.68,0.76c0.227,0.074,0.38,0.231,0.611,0.305
		c-0.079-0.149-0.079-0.305-0.154-0.536c-0.838-2.973-0.763-6.177,0.381-9.381c1.449-3.815,4.273-6.787,7.708-8.471
		c3.584-1.826,7.935-2.214,12.056-0.686c3.662,1.296,6.482,3.89,8.237,7.094c2.138,3.74,2.671,8.322,1.069,12.667
		c-0.227,0.61-0.532,1.222-0.838,1.833c-1.222,2.444-3.129,4.426-5.342,5.879c0.764,0.149,1.602,0.38,2.365,0.686
		c3.051,1.14,5.57,3.129,7.325,5.565c0.685,0.991,1.296,2.064,1.68,3.204C450.981,154.356,451.212,158.245,449.837,161.985z" style="fill: rgb(255, 161, 0);"></path>
</g>
</svg>
