<!--?xml version="1.0" encoding="utf-8"?-->
<!-- Generator: Adobe Illustrator 15.1.0, SVG Export Plug-In . SVG Version: 6.00 Build 0)  -->

<svg version="1.1" id="_x32_" xmlns="http://www.w3.org/2000/svg" xmlns:xlink="http://www.w3.org/1999/xlink" x="0px" y="0px" width="512px" height="512px" viewBox="0 0 512 512" style="width: 16px; height: 16px; opacity: 1;" xml:space="preserve">
<style type="text/css">

	.st0{fill:#4B4B4B;}

</style>
<g>
	<path class="st0" d="M393.291,1.074c-86.828,11.969-177.563,222-218.484,297.391c-10.281,18.938,7.672,28.797,18.25,10.672
		c7.625-13.047,49.203-95.109,49.203-95.109c45.297,1.5,67.953-24.172,49.844-43.813c60.875,1.25,91.047-32.25,73.781-52.578
		c18.156,5.75,44.828,4.906,68.172-7.828C483.9,82.621,480.885-11.004,393.291,1.074z" style="fill: rgb(0, 136, 208);"></path>
	<path class="st0" d="M320.775,326.043l-42.141-37.797V261.09h-30.047v40.563l52.109,46.75
		c16.266,14.594,25.563,35.422,25.563,57.281v63.703c-0.016,3.516-1.391,6.563-3.688,8.891c-2.328,2.297-5.359,3.672-8.891,3.688
		H88.088c-3.531-0.016-6.578-1.391-8.891-3.688c-2.297-2.328-3.672-5.375-3.672-8.891v-63.703c0-21.859,9.281-42.688,25.547-57.281
		l52.109-46.75V261.09h-30.047v27.156L81.01,326.043c-22.609,20.297-35.547,49.25-35.547,79.641v63.703
		c0,11.719,4.797,22.469,12.484,30.141c7.672,7.688,18.422,12.484,30.141,12.469h225.594c11.719,0.016,22.469-4.781,30.141-12.469
		c7.688-7.672,12.484-18.422,12.484-30.141v-63.703C356.307,375.293,343.385,346.34,320.775,326.043z" style="fill: rgb(0, 136, 208);"></path>
	<path class="st0" d="M111.104,359.59c-13.063,11.719-20.563,28.531-20.563,46.094v61.25h220.703v-61.25
		c0-9.094-2.047-17.953-5.797-26.031c-44.313,16.906-92.25,20.094-122.969-4.156c-19.469-15.359-41.453-21.906-63.422-23.047
		L111.104,359.59z" style="fill: rgb(0, 136, 208);"></path>
</g>
</svg>
