<!--?xml version="1.0" encoding="utf-8"?-->
<!-- Generator: Adobe Illustrator 18.1.1, SVG Export Plug-In . SVG Version: 6.00 Build 0)  -->

<svg version="1.1" id="_x32_" xmlns="http://www.w3.org/2000/svg" xmlns:xlink="http://www.w3.org/1999/xlink" x="0px" y="0px" viewBox="0 0 512 512" style="width: 16px; height: 16px; opacity: 1;" xml:space="preserve">
<style type="text/css">
	.st0{fill:#4B4B4B;}
</style>
<g>
	<path class="st0" d="M380.786,35.11l-2.896,0.031C324.347,36.117,292.666,67.796,271.436,99c-3.86,5.78-9.65,9.484-15.431,9.629
		c-5.79-0.146-11.58-3.85-15.44-9.629c-21.231-31.204-52.911-62.883-106.456-63.859l-2.894-0.031C62.084,35.11,0,86.392,0,197.735
		C0,309.004,95.674,387.961,154.687,428.15c38.767,26.544,87.486,46,87.486,46c4.493,1.443,11.425,2.739,13.832,2.739
		c2.397,0,9.328-1.296,13.822-2.739c0,0,48.72-19.456,87.487-46C416.326,387.961,512,309.004,512,197.735
		C512,86.402,449.896,35.11,380.786,35.11z M339.694,402.426c-32.158,22.009-72.856,39.234-80.264,42.296l-3.425,0.778l-3.445-0.778
		c-7.388-3.051-47.94-20.172-80.316-42.348C78.635,338.63,31.182,269.78,31.182,197.735c0-43.925,10.948-79.248,31.64-102.16
		c21.873-24.209,49.269-29.284,68.393-29.284l2.324,0.032c32.968,0.591,58.028,16.074,81.095,49.994
		c9.557,14.29,24.707,23.068,40.542,23.483l0.83,0.031l0.82-0.031c15.834-0.416,30.985-9.194,40.386-23.265
		c23.224-34.139,48.284-49.622,81.324-50.212l2.252-0.032c61.689,0,100.031,50.37,100.031,131.444
		C480.818,269.78,433.365,338.63,339.694,402.426z" style="fill: rgb(255, 169, 202);"></path>
	<path class="st0" d="M116.127,230.774c-1.983-8.135-3.154-15.41-3.612-21.801c-0.457-6.444-0.197-11.975,0.675-16.541
		c1.224-6.589-3.124-12.939-9.724-14.175c-6.589-1.234-12.939,3.124-14.154,9.702c-1.307,7.067-1.618,14.632-1.037,22.736
		c0.56,8.052,2.012,16.603,4.233,25.818c4.172,17.174,12.618,32.333,23.514,45.512c4.275,5.146,11.933,5.904,17.09,1.629
		c5.178-4.286,5.894-11.944,1.65-17.122C125.746,255.616,119.281,243.777,116.127,230.774z" style="fill: rgb(255, 169, 202);"></path>
	<path class="st0" d="M119.707,153.104c8.612,0,15.586-6.974,15.586-15.586c0-8.624-6.974-15.597-15.586-15.597
		c-8.624,0-15.596,6.973-15.596,15.597C104.111,146.131,111.083,153.104,119.707,153.104z" style="fill: rgb(255, 169, 202);"></path>
</g>
</svg>
