<!--?xml version="1.0" encoding="utf-8"?-->
<!-- Generator: Adobe Illustrator 18.1.1, SVG Export Plug-In . SVG Version: 6.00 Build 0)  -->

<svg version="1.1" id="_x32_" xmlns="http://www.w3.org/2000/svg" xmlns:xlink="http://www.w3.org/1999/xlink" x="0px" y="0px" viewBox="0 0 512 512" style="width: 16px; height: 16px; opacity: 1;" xml:space="preserve">
<style type="text/css">
	.st0{fill:#4B4B4B;}
</style>
<g>
	<path class="st0" d="M99.381,465.993c1.472,25.31,23.409,46.007,48.75,46.007h57.158c25.342,0,66.821,0,92.162,0h57.158
		c25.342,0,47.285-20.697,48.758-46.007l16.785-289.586H82.589L99.381,465.993z" style="fill: rgb(178, 78, 255);"></path>
	<path class="st0" d="M427.011,107.022c-4.653-3.132-45.696-27.507-110.772-46.03c0.062-0.304,0.125-0.585,0.188-0.881
		c5.189-27.507-12.897-54.017-40.396-59.222c-27.516-5.19-54.026,12.88-59.231,40.396c-0.054,0.28-0.094,0.576-0.14,0.88
		c-67.351-6.506-114.487,1.192-119.95,2.408c-9.53,2.119-11.751,6.92-13.177,14.478c-0.958,5.05-6.202,32.791-6.202,32.791
		l350.484,66.252c0,0,5.245-27.741,6.204-32.79C435.441,117.745,435.129,112.47,427.011,107.022z M288.303,53.816
		c-6.951-1.59-14.08-3.102-21.437-4.489c-7.348-1.403-14.54-2.587-21.593-3.631c2.688-11.361,13.832-18.718,25.411-16.543
		C282.264,31.357,289.947,42.267,288.303,53.816z" style="fill: rgb(178, 78, 255);"></path>
</g>
</svg>
