<!--?xml version="1.0" encoding="utf-8"?-->
<!-- Generator: Adobe Illustrator 18.1.1, SVG Export Plug-In . SVG Version: 6.00 Build 0)  -->

<svg version="1.1" id="_x32_" xmlns="http://www.w3.org/2000/svg" xmlns:xlink="http://www.w3.org/1999/xlink" x="0px" y="0px" viewBox="0 0 512 512" style="width: 16px; height: 16px; opacity: 1;" xml:space="preserve">
<style type="text/css">
	.st0{fill:#4B4B4B;}
</style>
<g>
	<path class="st0" d="M376.324,312.508c49.638-78.774,40.238-184.326-28.306-252.871c-79.507-79.515-208.872-79.515-288.388,0
		c-79.507,79.516-79.507,208.873,0,288.379c68.536,68.544,174.115,77.935,252.88,28.306l135.668,135.676L512,448.186
		L376.324,312.508z M296.543,296.542c-51.121,51.139-134.308,51.139-185.439,0c-51.121-51.121-51.112-134.299,0.009-185.43
		c51.122-51.121,134.309-51.13,185.43-0.008C347.665,162.243,347.665,245.421,296.543,296.542z" style="fill: rgb(255, 255, 255);"></path>
</g>
</svg>
