<!--?xml version="1.0" encoding="utf-8"?-->
<!-- Generator: Adobe Illustrator 18.1.1, SVG Export Plug-In . SVG Version: 6.00 Build 0)  -->

<svg version="1.1" id="_x32_" xmlns="http://www.w3.org/2000/svg" xmlns:xlink="http://www.w3.org/1999/xlink" x="0px" y="0px" viewBox="0 0 512 512" style="width: 16px; height: 16px; opacity: 1;" xml:space="preserve">
<style type="text/css">
	.st0{fill:#4B4B4B;}
</style>
<g>
	<path class="st0" d="M477.685,88.816L339.741,38.612V417.89c0,25.177-20.528,45.704-45.704,45.704h-97.66l127.952,46.54
		c15.792,5.796,33.339-2.362,39.062-18.233l132.532-364.02C501.644,112.086,493.481,94.613,477.685,88.816z M449.609,150.994
		c-0.384,0.462-0.764,0.842-1.144,1.297c-1.833,1.833-3.893,3.509-6.259,5.036c-4.042,2.519-8.699,4.888-13.2,7.019
		c-1.754,0.842-3.431,1.684-5.111,2.518c-0.078,0-0.078,0-0.078,0v0.075c-1.677,0.768-3.278,1.609-4.806,2.295
		c-2.44,1.371-4.579,2.668-6.255,3.964c-0.079,0-0.154,0.075-0.154,0.075c-0.458,0.387-0.838,0.693-1.144,0.998
		c-0.23,0.224-0.536,0.15-0.536,0.15c-0.074,0-0.305-0.15-0.305-0.455c-0.075-1.073-0.38-2.295-0.76-3.591
		c-0.764-2.437-1.908-5.342-3.282-8.39c-2.746-6.408-6.408-13.814-8.621-20.833c-0.536-1.826-0.991-3.658-1.222-5.417
		c-1.755-11.057,2.518-21.056,11.37-24.111c5.722-1.908,11.214-0.298,14.954,3.129c3.051,2.675,4.959,6.49,5.111,10.685
		c0,0.611,0,1.222-0.078,1.834c2.444-3.592,6.259-5.722,10.301-6.259c1.68-0.231,3.282-0.15,4.959,0.149
		c3.894,0.693,7.63,2.98,9.996,6.944C457.619,135.124,455.712,143.902,449.609,150.994z" style="fill: rgb(255, 126, 61);"></path>
	<path class="st0" d="M324.481,417.89V30.445C324.481,13.658,310.823,0,294.036,0H44.691C27.908,0,14.251,13.658,14.251,30.445
		V417.89c0,16.787,13.658,30.445,30.441,30.445h249.345C310.823,448.335,324.481,434.677,324.481,417.89z M93.905,79.279
		c-0.458,2.362-1.68,4.501-3.74,6.177c-0.607,0.536-1.218,0.916-1.908,1.296c-4.347,2.37-10.376,1.602-14.112-1.832
		c0.38,6.564,1.296,12.823,3.204,18.083H66.057c0.991-2.824,1.755-5.946,2.213-9.232c0.153-0.685,0.305-1.296,0.305-1.982
		c0.38-2.213,0.533-4.501,0.685-6.87c-1.449,1.378-3.204,2.295-5.111,2.675c-3.74,1.065-8.014,0.38-10.912-2.139
		c-5.949-5.037-4.805-13.352-0.685-19.909c0,0,0-0.082,0.075-0.082c0.384-0.611,0.842-1.296,1.296-1.908
		c1.985-2.593,4.426-5.26,6.87-7.936c4.5-4.88,8.926-9.537,10.528-13.046c0.153-0.38,0.305-0.455,0.38-0.455
		c0.153,0,0.23,0.075,0.384,0.455c0.226,0.462,0.458,0.916,0.76,1.378c2.976,5.112,10.606,12.056,15.796,18.613
		c0.152,0.156,0.305,0.231,0.38,0.38c0.152,0.231,0.305,0.388,0.458,0.611C93.068,68.214,95.128,74.242,93.905,79.279z
		 M218.196,258.35c-6.866,5.871-16.556,8.01-25.56,6.482c-6.256-0.991-12.209-3.658-16.787-7.936
		c0.152,3.13,0.384,6.259,0.764,9.314c0.536,6.714,1.449,13.271,2.671,19.53c1.222,6.407,2.824,12.592,4.884,18.24
		c0.075,0.224,0.152,0.53,0.227,0.76h-30.062c0.079-0.23,0.154-0.536,0.231-0.76c2.06-5.648,3.662-11.832,4.881-18.24
		c1.222-6.259,2.138-12.816,2.671-19.53c0.38-3.055,0.61-6.184,0.764-9.314c-4.579,4.277-10.528,6.945-16.787,7.936
		c-9.001,1.528-18.691-0.611-25.561-6.482c-0.608-0.537-1.144-0.991-1.677-1.677c-13.81-13.434-10.681-34.416-0.078-51.196
		c1.069-1.833,2.291-3.591,3.588-5.268c3.51-4.575,7.477-9.306,11.672-13.888c5.8-6.482,11.902-12.965,17.32-19.075
		c7.175-7.853,13.278-15.103,16.329-21.206c0.231-0.38,0.458-0.842,0.611-1.221c0.075-0.156,0.152-0.306,0.227-0.462
		c0.384-0.529,0.689-0.76,0.842-0.76c0.226,0,0.458,0.231,0.838,0.76c0.075,0.156,0.153,0.306,0.228,0.462
		c0.152,0.38,0.384,0.841,0.611,1.221c5.495,10.834,20.371,25.408,33.648,40.28c4.195,4.582,8.163,9.314,11.672,13.888
		c1.3,1.677,2.518,3.435,3.588,5.268C231.015,222.949,233.914,244.848,218.196,258.35z M285.49,401.863
		c-3.51,3.055-9.08,3.435-13.352,1.222c-0.991-0.455-1.83-0.991-2.671-1.751c0.078,0.916,0.152,1.833,0.231,2.668
		c0,0.842,0.152,1.676,0.226,2.518c0.537,4.657,1.375,9.083,2.825,12.898h-11.367c0.227-0.536,0.38-1.148,0.532-1.759
		c1.528-4.88,2.366-10.528,2.671-16.325c-1.449,1.296-3.282,2.213-5.189,2.668c-1.375,0.462-2.898,0.536-4.348,0.38
		c-0.23,0-0.536,0-0.764-0.075c-2.138-0.23-4.12-1.065-5.722-2.444c-3.356-2.898-4.425-6.788-4.045-10.834c0-0.075,0-0.075,0-0.075
		c0.458-3.815,2.213-7.778,4.731-11.065c5.722-7.472,14.954-15.565,17.398-20.982c0.152-0.305,0.305-0.38,0.38-0.38
		c0.152,0,0.23,0.075,0.38,0.38c0.61,1.454,1.758,3.055,3.208,4.732c0,0.156,0.152,0.305,0.305,0.462
		c1.755,2.213,4.042,4.575,6.33,7.019c0,0.075,0,0.075,0,0.075c1.453,1.528,2.824,3.13,4.199,4.656
		c1.218,1.371,2.366,2.668,3.356,4.038C289.994,386.76,292.054,396.223,285.49,401.863z" style="fill: rgb(255, 126, 61);"></path>
</g>
</svg>
